<svg version="1.1" id="Layer_1" xmlns="http://www.w3.org/2000/svg" xmlns:xlink="http://www.w3.org/1999/xlink" x="0px" y="0px"
	 width="100%" viewBox="0 0 828 597" enable-background="new 0 0 828 597" xml:space="preserve">
<path fill="#DFECF3" opacity="1.000000" stroke="none" 
	d="
M815.000000,598.000000 
	C814.250000,598.000000 813.500000,598.000000 812.281006,597.847961 
	C811.541321,597.797241 811.270691,597.898621 811.000000,598.000000 
	C811.000000,598.000000 810.500000,598.000000 810.156006,597.847961 
	C809.541321,597.797302 809.270691,597.898621 809.000000,598.000000 
	C808.250000,598.000000 807.500000,598.000000 806.281006,597.847961 
	C805.541321,597.797302 805.270691,597.898621 805.000000,598.000000 
	C805.000000,598.000000 804.500000,598.000000 804.156006,597.847961 
	C803.541321,597.797241 803.270630,597.898621 803.000000,598.000000 
	C803.000000,598.000000 802.500000,598.000000 802.156006,597.847961 
	C801.541321,597.797302 801.270691,597.898621 801.000000,598.000000 
	C799.611084,598.000000 798.222229,598.000000 796.322632,597.847961 
	C795.541321,597.797302 795.270691,597.898682 795.000000,598.000000 
	C795.000000,598.000000 794.500000,598.000000 794.029297,597.752441 
	C792.372375,597.669922 791.186157,597.834961 790.000000,598.000000 
	C789.555542,598.000000 789.111145,598.000000 788.180542,597.788330 
	C787.129639,597.717773 786.564819,597.858887 786.000000,598.000000 
	C774.975891,598.000000 763.951843,598.000000 752.369873,597.847900 
	C751.541321,597.797241 751.270630,597.898621 751.000000,598.000000 
	C751.000000,598.000000 750.500000,598.000000 750.156006,597.848022 
	C749.541382,597.797302 749.270691,597.898682 749.000000,598.000000 
	C749.000000,598.000000 748.500000,598.000000 748.156006,597.847961 
	C747.541321,597.797302 747.270691,597.898682 747.000000,598.000000 
	C747.000000,598.000000 746.500000,598.000000 746.057373,597.763550 
	C744.743225,597.684753 743.871582,597.842346 743.000000,598.000000 
	C743.000000,598.000000 742.500000,598.000000 742.156006,597.848022 
	C741.541382,597.797302 741.270691,597.898682 741.000000,598.000000 
	C741.000000,598.000000 740.500000,598.000000 740.156006,597.847961 
	C739.541321,597.797302 739.270691,597.898621 739.000000,598.000000 
	C739.000000,598.000000 738.500000,598.000000 738.156006,597.847961 
	C737.541321,597.797241 737.270691,597.898621 737.000000,598.000000 
	C737.000000,598.000000 736.500000,598.000000 736.156006,597.847961 
	C735.541321,597.797302 735.270691,597.898621 735.000000,598.000000 
	C735.000000,598.000000 734.500000,598.000000 734.156006,597.847961 
	C733.541321,597.797302 733.270691,597.898682 733.000000,598.000000 
	C733.000000,598.000000 732.500000,598.000000 732.097229,597.788330 
	C731.129639,597.717773 730.564819,597.858887 730.000000,598.000000 
	C728.285950,598.000000 726.571838,598.000000 724.207031,597.722534 
	C721.034851,594.255676 717.657104,593.933044 713.824463,593.935303 
	C582.341736,594.013000 450.858917,593.989563 319.376129,594.041931 
	C314.584747,594.043823 309.793671,594.661804 304.999603,594.565674 
	C304.666351,592.013245 304.157471,589.898010 304.036316,587.760681 
	C303.499756,578.295898 303.541473,578.211731 293.882141,578.042175 
	C290.337677,577.979919 288.149902,576.912170 287.879547,573.011719 
	C287.813477,572.058411 286.770416,570.393372 286.143768,570.377747 
	C279.214081,570.206116 279.825226,565.352295 280.018616,560.795410 
	C280.176819,557.067810 280.076477,554.392395 275.027924,553.427917 
	C272.551758,552.954895 270.817780,548.609680 268.731445,546.030151 
	C268.659668,545.941345 268.343811,546.062805 268.254517,545.973450 
	C264.165649,541.884644 260.088837,537.783875 256.012024,533.683105 
	C254.790451,532.454346 253.740082,530.966492 252.322723,530.037720 
	C247.619736,526.955444 245.580399,521.041199 240.175369,518.723145 
	C239.954727,518.628479 239.973953,517.772705 240.021637,517.285217 
	C240.527023,512.118896 237.978806,510.499207 233.143921,510.933807 
	C230.560013,511.166107 227.515213,511.616119 225.803604,507.383759 
	C228.110977,507.230347 229.833694,507.018158 231.556763,507.015228 
	C339.695587,506.831696 447.834473,506.657166 555.973328,506.502350 
	C585.059265,506.460693 614.145325,506.505188 643.231201,506.443756 
	C646.261536,506.437347 649.290894,505.978210 652.320740,505.729156 
	C652.270752,505.153168 652.220825,504.577209 652.170837,504.001221 
	C650.239380,504.001221 648.307800,503.985748 646.376465,504.003540 
	C610.582458,504.333344 574.788696,504.914764 538.994385,504.954193 
	C426.329346,505.078308 313.664062,504.999176 200.998886,504.998688 
	C199.998901,504.998688 198.988953,504.906769 198.000763,505.014496 
	C194.954987,505.346527 193.634079,504.035980 194.468658,501.002136 
	C309.554779,500.999176 424.172272,501.003082 538.789734,500.954681 
	C540.858398,500.953827 542.926880,500.328461 545.464355,499.992462 
	C583.183960,499.990356 620.434692,500.022675 657.685181,499.946167 
	C661.971069,499.937378 666.294128,499.552429 670.517517,498.847717 
	C671.777161,498.637543 672.756042,496.744019 674.007568,495.393860 
	C674.732971,494.765045 675.314392,494.364166 676.286133,493.977539 
	C680.021484,493.578461 681.325745,491.688080 680.667114,488.302826 
	C680.619141,488.193848 680.781677,488.019836 681.075928,487.848633 
	C681.574036,487.049866 681.777832,486.422302 682.092407,485.756226 
	C682.203308,485.717682 682.309875,485.926758 682.692444,485.782227 
	C683.392029,484.101868 683.709045,482.566101 684.290710,480.731262 
	C684.698730,477.955597 684.842041,475.479034 684.989624,472.535339 
	C684.989929,352.373810 684.986084,232.679428 684.985352,112.540810 
	C684.708435,109.345863 684.728821,106.515511 684.029297,103.875931 
	C683.643188,102.418686 682.049377,101.281487 680.947998,99.644592 
	C678.901123,96.547310 676.906250,93.805443 675.254028,90.984741 
	C675.856628,89.975952 676.116577,89.046013 676.376587,88.116074 
	C675.494568,88.020325 674.614197,87.865204 673.730042,87.839188 
	C670.114319,87.732788 666.497192,87.674843 662.881104,87.579880 
	C661.431885,87.541824 659.955505,87.242920 658.541504,87.433540 
	C655.656433,87.822479 652.806396,88.924248 649.940063,88.930618 
	C605.690491,89.028870 561.440613,88.984680 517.190857,89.040375 
	C515.124817,89.042976 513.059509,89.670128 510.525635,90.010498 
	C433.708893,90.015060 357.360443,90.015533 280.704529,89.731926 
	C279.590363,89.299126 278.783752,89.021111 277.976837,89.020409 
	C250.878632,88.996872 223.780380,88.986404 196.682266,89.041946 
	C195.450302,89.044472 194.219604,89.677155 192.743439,90.021301 
	C192.498535,90.026268 192.008667,90.020859 191.771301,89.734169 
	C186.938538,87.311737 185.906357,87.375313 181.118515,90.629387 
	C183.987335,90.792961 186.028122,90.909325 188.057968,91.298340 
	C188.046875,91.752907 188.046707,91.934822 187.829926,92.214409 
	C187.337524,92.488663 187.134598,92.727234 186.622742,93.030602 
	C180.567490,93.822838 177.309509,97.757034 174.061218,102.283768 
	C173.565613,103.338020 173.400864,104.243088 173.246597,105.172600 
	C173.257095,105.197052 173.247040,105.249313 172.942047,105.172165 
	C172.429077,105.067833 172.221100,105.040642 171.955200,104.687683 
	C171.264862,103.241272 170.632431,102.120636 170.363525,100.992584 
	C171.867844,100.257919 173.008636,99.530678 174.149445,98.803436 
	C173.667816,98.295769 173.186203,97.788109 172.704590,97.280449 
	C171.803055,98.520302 170.901535,99.760155 169.621643,100.985336 
	C167.961304,99.718010 166.679337,98.465363 165.279526,97.097580 
	C161.623367,98.911522 163.056610,102.220406 163.400040,104.892776 
	C163.481339,105.525368 166.254059,105.675034 167.665863,106.317017 
	C168.797012,106.831383 169.742035,107.755119 170.664078,108.420944 
	C170.973877,107.638313 171.493423,106.325745 172.032898,105.343124 
	C172.354507,106.454102 172.656204,107.235130 173.014496,108.269012 
	C173.134201,108.682678 173.197281,108.843483 173.128723,109.315002 
	C172.898773,110.064743 172.800461,110.503761 172.506104,110.947617 
	C172.310059,110.952461 171.923340,111.017784 171.701370,111.202629 
	C171.313889,111.931458 171.148361,112.475441 170.771881,113.131355 
	C170.300110,113.441978 170.110703,113.694305 169.582336,114.022835 
	C168.448166,116.125854 167.093597,118.205597 167.091278,120.286842 
	C166.986618,214.190735 167.000610,308.094757 166.720551,402.307129 
	C166.181732,416.976898 165.922974,431.338257 165.664215,445.699646 
	C165.029175,445.729095 164.394135,445.758545 163.759094,445.787994 
	C163.507172,444.629120 163.097031,443.479736 163.027054,442.309967 
	C161.989761,424.966614 161.079147,407.614777 159.850861,390.285339 
	C159.744308,388.782135 157.838150,386.554596 156.374664,386.173401 
	C153.141510,385.331299 151.923203,383.638062 151.994049,380.541443 
	C152.039780,378.542572 151.935074,376.539276 152.012344,374.542389 
	C152.117722,371.819336 151.184784,370.530975 148.249664,369.748169 
	C146.518631,369.286530 144.924744,366.719299 144.147247,364.752014 
	C143.463348,363.021545 143.921249,360.804565 144.017578,358.809357 
	C144.158646,355.887238 143.284897,354.365021 139.999451,353.732971 
	C138.427887,353.430664 136.788437,350.886047 136.153488,349.024811 
	C135.491089,347.083099 135.937515,344.739563 136.012924,342.575684 
	C136.106995,339.876129 135.244446,338.533539 132.281799,337.752289 
	C130.545288,337.294373 128.932266,334.745911 128.148575,332.784271 
	C127.459251,331.058899 127.924660,328.838257 128.016861,326.842621 
	C128.150681,323.946533 127.343933,322.368835 124.031944,321.737274 
	C122.453575,321.436249 120.747871,318.912354 120.161835,317.059479 
	C119.490555,314.937012 120.394760,312.345001 119.857323,310.141663 
	C119.483215,308.607941 117.997368,306.420807 116.722420,306.203705 
	C112.796844,305.535248 111.903214,303.300903 111.976532,299.873993 
	C112.072769,295.376160 112.291176,290.844574 111.835960,286.390991 
	C111.676590,284.831818 109.909271,282.555054 108.472153,282.187988 
	C105.265900,281.369049 103.936050,279.773560 103.995163,276.640167 
	C104.036026,274.474365 104.400162,272.200012 103.862579,270.175201 
	C103.452065,268.629059 102.019104,266.421875 100.754227,266.208496 
	C96.841713,265.548492 95.930359,263.349030 95.973938,259.906128 
	C96.062531,252.907364 95.947960,245.906097 96.024017,238.907043 
	C96.054939,236.062073 95.427483,234.446808 92.105873,233.723999 
	C90.450462,233.363785 88.412888,230.548492 88.188766,228.650040 
	C87.625961,223.882843 88.238571,218.985748 87.848160,214.183975 
	C87.729675,212.726669 86.040062,210.423157 84.784805,210.213287 
	C80.884735,209.561188 79.899979,207.396164 79.976051,203.936691 
	C80.074951,199.438965 80.240448,194.916779 79.862083,190.448776 
	C79.732300,188.916260 78.186783,186.386749 77.056076,186.251480 
	C72.444000,185.699631 71.931915,182.913330 71.968552,179.202240 
	C72.062325,169.703308 72.118149,160.199814 71.878906,150.705948 
	C71.839523,149.143036 70.344475,146.383606 69.324463,146.288071 
	C64.422836,145.829010 63.930504,142.879059 63.963306,138.967773 
	C64.063942,126.968796 64.089462,114.966942 63.892708,102.970337 
	C63.866074,101.346375 62.501648,98.420662 61.586723,98.351677 
	C56.017242,97.931747 55.944630,94.374153 55.964981,90.233574 
	C56.048531,73.234230 56.003990,56.234230 55.994068,39.234482 
	C55.992706,36.900169 56.313137,34.243988 52.876396,34.057938 
	C48.527008,33.822475 47.936764,31.048622 47.971668,27.499340 
	C48.058525,18.666988 48.000095,9.833207 48.000000,1.000000 
	C308.252472,1.000000 568.504944,1.000000 829.000000,1.000000 
	C829.000000,199.357361 829.000000,397.714813 828.636292,596.536194 
	C827.181702,597.333374 826.090881,597.666687 825.000000,598.000000 
	C824.250000,598.000000 823.500000,598.000000 822.281006,597.847961 
	C821.541321,597.797302 821.270691,597.898682 821.000000,598.000000 
	C821.000000,598.000000 820.500000,598.000000 820.156006,597.847961 
	C819.541321,597.797302 819.270691,597.898621 819.000000,598.000000 
	C819.000000,598.000000 818.500000,598.000000 818.156006,597.847961 
	C817.541321,597.797302 817.270691,597.898682 817.000000,598.000000 
	C817.000000,598.000000 816.500000,598.000000 816.156006,597.848022 
	C815.541382,597.797302 815.270691,597.898682 815.000000,598.000000 
M491.500000,85.000000 
	C544.985596,84.999809 598.471191,85.017151 651.956543,84.915459 
	C653.574463,84.912392 655.190063,83.666245 656.806702,82.999657 
	C655.189941,82.333183 653.602600,81.575012 651.943115,81.041451 
	C651.187988,80.798660 650.290100,80.993454 649.457031,81.000938 
	C612.505981,81.332832 575.555115,81.843727 538.603699,81.893021 
	C527.192505,81.908249 515.773499,80.013519 504.368713,80.120819 
	C468.286591,80.460327 432.210419,81.391449 396.129944,81.968216 
	C383.636536,82.167923 371.136932,81.958496 358.640961,82.047646 
	C356.880280,82.060204 355.124146,82.711411 353.365875,83.067017 
	C353.486298,83.711342 353.606720,84.355675 353.727142,85.000000 
	C399.318085,85.000000 444.909058,85.000000 491.500000,85.000000 
z"/>
<path fill="#D9EAF1" opacity="1.000000" stroke="none" 
	d="
M194.000000,501.003662 
	C193.634079,504.035980 194.954987,505.346527 198.000763,505.014496 
	C198.988953,504.906769 199.998901,504.998688 200.998886,504.998688 
	C313.664062,504.999176 426.329346,505.078308 538.994385,504.954193 
	C574.788696,504.914764 610.582458,504.333344 646.376465,504.003540 
	C648.307800,503.985748 650.239380,504.001221 652.170837,504.001221 
	C652.220825,504.577209 652.270752,505.153168 652.320740,505.729156 
	C649.290894,505.978210 646.261536,506.437347 643.231201,506.443756 
	C614.145325,506.505188 585.059265,506.460693 555.973328,506.502350 
	C447.834473,506.657166 339.695587,506.831696 231.556763,507.015228 
	C229.833694,507.018158 228.110977,507.230347 225.803604,507.383759 
	C227.515213,511.616119 230.560013,511.166107 233.143921,510.933807 
	C237.978806,510.499207 240.527023,512.118896 240.021637,517.285217 
	C239.973953,517.772705 239.954727,518.628479 240.175369,518.723145 
	C245.580399,521.041199 247.619736,526.955444 252.322723,530.037720 
	C253.740082,530.966492 254.790451,532.454346 256.012024,533.683105 
	C260.088837,537.783875 264.165649,541.884644 268.254517,545.973450 
	C268.343811,546.062805 268.659668,545.941345 268.731445,546.030151 
	C270.817780,548.609680 272.551758,552.954895 275.027924,553.427917 
	C280.076477,554.392395 280.176819,557.067810 280.018616,560.795410 
	C279.825226,565.352295 279.214081,570.206116 286.143768,570.377747 
	C286.770416,570.393372 287.813477,572.058411 287.879547,573.011719 
	C288.149902,576.912170 290.337677,577.979919 293.882141,578.042175 
	C303.541473,578.211731 303.499756,578.295898 304.036316,587.760681 
	C304.157471,589.898010 304.666351,592.013245 304.530670,594.567749 
	C203.043045,594.997925 102.021523,594.998962 1.000000,595.000000 
	C1.000000,397.000000 1.000000,198.999985 1.000000,1.000000 
	C16.416908,1.000000 31.739796,1.000000 47.531342,1.000000 
	C48.000095,9.833207 48.058525,18.666988 47.971668,27.499340 
	C47.936764,31.048622 48.527008,33.822475 52.876396,34.057938 
	C56.313137,34.243988 55.992706,36.900169 55.994068,39.234482 
	C56.003990,56.234230 56.048531,73.234230 55.964981,90.233574 
	C55.944630,94.374153 56.017242,97.931747 61.586723,98.351677 
	C62.501648,98.420662 63.866074,101.346375 63.892708,102.970337 
	C64.089462,114.966942 64.063942,126.968796 63.963306,138.967773 
	C63.930504,142.879059 64.422836,145.829010 69.324463,146.288071 
	C70.344475,146.383606 71.839523,149.143036 71.878906,150.705948 
	C72.118149,160.199814 72.062325,169.703308 71.968552,179.202240 
	C71.931915,182.913330 72.444000,185.699631 77.056076,186.251480 
	C78.186783,186.386749 79.732300,188.916260 79.862083,190.448776 
	C80.240448,194.916779 80.074951,199.438965 79.976051,203.936691 
	C79.899979,207.396164 80.884735,209.561188 84.784805,210.213287 
	C86.040062,210.423157 87.729675,212.726669 87.848160,214.183975 
	C88.238571,218.985748 87.625961,223.882843 88.188766,228.650040 
	C88.412888,230.548492 90.450462,233.363785 92.105873,233.723999 
	C95.427483,234.446808 96.054939,236.062073 96.024017,238.907043 
	C95.947960,245.906097 96.062531,252.907364 95.973938,259.906128 
	C95.930359,263.349030 96.841713,265.548492 100.754227,266.208496 
	C102.019104,266.421875 103.452065,268.629059 103.862579,270.175201 
	C104.400162,272.200012 104.036026,274.474365 103.995163,276.640167 
	C103.936050,279.773560 105.265900,281.369049 108.472153,282.187988 
	C109.909271,282.555054 111.676590,284.831818 111.835960,286.390991 
	C112.291176,290.844574 112.072769,295.376160 111.976532,299.873993 
	C111.903214,303.300903 112.796844,305.535248 116.722420,306.203705 
	C117.997368,306.420807 119.483215,308.607941 119.857323,310.141663 
	C120.394760,312.345001 119.490555,314.937012 120.161835,317.059479 
	C120.747871,318.912354 122.453575,321.436249 124.031944,321.737274 
	C127.343933,322.368835 128.150681,323.946533 128.016861,326.842621 
	C127.924660,328.838257 127.459251,331.058899 128.148575,332.784271 
	C128.932266,334.745911 130.545288,337.294373 132.281799,337.752289 
	C135.244446,338.533539 136.106995,339.876129 136.012924,342.575684 
	C135.937515,344.739563 135.491089,347.083099 136.153488,349.024811 
	C136.788437,350.886047 138.427887,353.430664 139.999451,353.732971 
	C143.284897,354.365021 144.158646,355.887238 144.017578,358.809357 
	C143.921249,360.804565 143.463348,363.021545 144.147247,364.752014 
	C144.924744,366.719299 146.518631,369.286530 148.249664,369.748169 
	C151.184784,370.530975 152.117722,371.819336 152.012344,374.542389 
	C151.935074,376.539276 152.039780,378.542572 151.994049,380.541443 
	C151.923203,383.638062 153.141510,385.331299 156.374664,386.173401 
	C157.838150,386.554596 159.744308,388.782135 159.850861,390.285339 
	C161.079147,407.614777 161.989761,424.966614 163.027054,442.309967 
	C163.097031,443.479736 163.507172,444.629120 163.759094,445.787994 
	C164.394135,445.758545 165.029175,445.729095 165.664215,445.699646 
	C165.922974,431.338257 166.181732,416.976898 167.094696,402.307434 
	C168.497238,401.999146 169.245575,401.998962 169.997192,402.467560 
	C169.998611,418.624695 169.996765,434.313019 169.608002,450.107330 
	C168.817566,454.178772 168.273636,458.138672 168.114304,462.113922 
	C168.076813,463.049255 169.336868,464.036591 170.003006,465.466400 
	C170.329956,470.944244 170.653915,475.955719 170.989609,481.303589 
	C171.019836,482.088257 171.038315,482.536499 171.055740,483.374207 
	C172.962097,492.158020 184.146393,500.941193 193.239838,500.991333 
	C193.662155,500.998383 193.831070,501.001007 194.000000,501.003662 
z"/>
<path fill="#DCE8EA" opacity="1.000000" stroke="none" 
	d="
M1.000000,595.500000 
	C102.021523,594.998962 203.043045,594.997925 304.533508,594.994812 
	C309.793671,594.661804 314.584747,594.043823 319.376129,594.041931 
	C450.858917,593.989563 582.341736,594.013000 713.824463,593.935303 
	C717.657104,593.933044 721.034851,594.255676 723.778137,597.722534 
	C484.500000,598.000000 245.000031,598.005432 5.500130,597.858582 
	C4.210926,597.857788 0.872576,600.328430 1.000000,595.500000 
z"/>
<path fill="#DCE8EA" opacity="1.000000" stroke="none" 
	d="
M825.500000,598.000000 
	C826.090881,597.666687 827.181702,597.333374 828.636292,597.000061 
	C828.000000,597.333313 827.000000,597.666687 825.500000,598.000000 
z"/>
<path fill="#DCE8EA" opacity="1.000000" stroke="none" 
	d="
M790.399963,598.000000 
	C791.186157,597.834961 792.372375,597.669922 793.779297,597.752441 
	C792.933289,598.000000 791.866638,598.000000 790.399963,598.000000 
z"/>
<path fill="#DCE8EA" opacity="1.000000" stroke="none" 
	d="
M743.375000,598.000000 
	C743.871582,597.842346 744.743225,597.684753 745.807373,597.763550 
	C745.250000,598.000000 744.500000,598.000000 743.375000,598.000000 
z"/>
<path fill="#DCE8EA" opacity="1.000000" stroke="none" 
	d="
M730.333313,598.000000 
	C730.564819,597.858887 731.129639,597.717773 731.847229,597.788330 
	C731.555542,598.000000 731.111084,598.000000 730.333313,598.000000 
z"/>
<path fill="#DCE8EA" opacity="1.000000" stroke="none" 
	d="
M786.333313,598.000000 
	C786.564819,597.858887 787.129639,597.717773 787.847229,597.788330 
	C787.555542,598.000000 787.111084,598.000000 786.333313,598.000000 
z"/>
<path fill="#DCE8EA" opacity="1.000000" stroke="none" 
	d="
M801.250000,598.000000 
	C801.270691,597.898621 801.541321,597.797302 801.906006,597.847961 
	C802.000000,598.000000 801.500000,598.000000 801.250000,598.000000 
z"/>
<path fill="#DCE8EA" opacity="1.000000" stroke="none" 
	d="
M751.250000,598.000000 
	C751.270630,597.898621 751.541321,597.797241 751.906006,597.847900 
	C752.000000,598.000000 751.500000,598.000000 751.250000,598.000000 
z"/>
<path fill="#DCE8EA" opacity="1.000000" stroke="none" 
	d="
M803.250000,598.000000 
	C803.270630,597.898621 803.541321,597.797241 803.906006,597.847961 
	C804.000000,598.000000 803.500000,598.000000 803.250000,598.000000 
z"/>
<path fill="#DCE8EA" opacity="1.000000" stroke="none" 
	d="
M805.250000,598.000000 
	C805.270691,597.898621 805.541321,597.797302 805.906006,597.847961 
	C806.000000,598.000000 805.500000,598.000000 805.250000,598.000000 
z"/>
<path fill="#DCE8EA" opacity="1.000000" stroke="none" 
	d="
M809.250000,598.000000 
	C809.270691,597.898621 809.541321,597.797302 809.906006,597.847961 
	C810.000000,598.000000 809.500000,598.000000 809.250000,598.000000 
z"/>
<path fill="#DCE8EA" opacity="1.000000" stroke="none" 
	d="
M811.250000,598.000000 
	C811.270691,597.898621 811.541321,597.797241 811.906006,597.847961 
	C812.000000,598.000000 811.500000,598.000000 811.250000,598.000000 
z"/>
<path fill="#DCE8EA" opacity="1.000000" stroke="none" 
	d="
M815.250000,598.000000 
	C815.270691,597.898682 815.541382,597.797302 815.906006,597.848022 
	C816.000000,598.000000 815.500000,598.000000 815.250000,598.000000 
z"/>
<path fill="#DCE8EA" opacity="1.000000" stroke="none" 
	d="
M817.250000,598.000000 
	C817.270691,597.898682 817.541321,597.797302 817.906006,597.847961 
	C818.000000,598.000000 817.500000,598.000000 817.250000,598.000000 
z"/>
<path fill="#DCE8EA" opacity="1.000000" stroke="none" 
	d="
M819.250000,598.000000 
	C819.270691,597.898621 819.541321,597.797302 819.906006,597.847961 
	C820.000000,598.000000 819.500000,598.000000 819.250000,598.000000 
z"/>
<path fill="#DCE8EA" opacity="1.000000" stroke="none" 
	d="
M821.250000,598.000000 
	C821.270691,597.898682 821.541321,597.797302 821.906006,597.847961 
	C822.000000,598.000000 821.500000,598.000000 821.250000,598.000000 
z"/>
<path fill="#DCE8EA" opacity="1.000000" stroke="none" 
	d="
M795.250000,598.000000 
	C795.270691,597.898682 795.541321,597.797302 795.906006,597.847961 
	C796.000000,598.000000 795.500000,598.000000 795.250000,598.000000 
z"/>
<path fill="#DCE8EA" opacity="1.000000" stroke="none" 
	d="
M749.250000,598.000000 
	C749.270691,597.898682 749.541382,597.797302 749.906006,597.848022 
	C750.000000,598.000000 749.500000,598.000000 749.250000,598.000000 
z"/>
<path fill="#DCE8EA" opacity="1.000000" stroke="none" 
	d="
M747.250000,598.000000 
	C747.270691,597.898682 747.541321,597.797302 747.906006,597.847961 
	C748.000000,598.000000 747.500000,598.000000 747.250000,598.000000 
z"/>
<path fill="#DCE8EA" opacity="1.000000" stroke="none" 
	d="
M741.250000,598.000000 
	C741.270691,597.898682 741.541382,597.797302 741.906006,597.848022 
	C742.000000,598.000000 741.500000,598.000000 741.250000,598.000000 
z"/>
<path fill="#DCE8EA" opacity="1.000000" stroke="none" 
	d="
M739.250000,598.000000 
	C739.270691,597.898621 739.541321,597.797302 739.906006,597.847961 
	C740.000000,598.000000 739.500000,598.000000 739.250000,598.000000 
z"/>
<path fill="#DCE8EA" opacity="1.000000" stroke="none" 
	d="
M737.250000,598.000000 
	C737.270691,597.898621 737.541321,597.797241 737.906006,597.847961 
	C738.000000,598.000000 737.500000,598.000000 737.250000,598.000000 
z"/>
<path fill="#DCE8EA" opacity="1.000000" stroke="none" 
	d="
M735.250000,598.000000 
	C735.270691,597.898621 735.541321,597.797302 735.906006,597.847961 
	C736.000000,598.000000 735.500000,598.000000 735.250000,598.000000 
z"/>
<path fill="#DCE8EA" opacity="1.000000" stroke="none" 
	d="
M733.250000,598.000000 
	C733.270691,597.898682 733.541321,597.797302 733.906006,597.847961 
	C734.000000,598.000000 733.500000,598.000000 733.250000,598.000000 
z"/>
<path fill="#D04C55" opacity="1.000000" stroke="none" 
	d="
M680.781677,488.019836 
	C680.781677,488.019836 680.619141,488.193848 680.385620,488.500458 
	C678.733337,490.525787 677.314575,492.244537 675.895813,493.963257 
	C675.314392,494.364166 674.732971,494.765045 673.624939,495.490631 
	C668.866272,496.542236 664.636841,497.882202 660.401733,497.900208 
	C622.572449,498.061340 584.742188,497.985840 546.912170,497.986725 
	C429.755798,497.989471 312.599426,497.995026 195.443039,498.000000 
	C189.881989,498.000244 184.403580,497.721527 180.368744,493.467896 
	C180.845703,493.520630 181.020538,493.626831 181.591003,493.784119 
	C182.980881,494.193817 183.975128,494.552490 185.383209,494.994629 
	C189.083206,495.399658 192.369278,496.001373 195.655563,496.002380 
	C346.820892,496.048492 497.986206,496.042145 649.151550,496.042114 
	C650.651550,496.042114 652.197144,495.809204 653.643433,496.088928 
	C659.222107,497.167755 664.163147,496.049774 669.381226,493.606628 
	C677.233582,489.930176 680.994690,485.224823 680.994751,476.349335 
	C680.995300,355.183746 680.994080,234.018143 681.002197,112.852554 
	C681.002380,110.189621 681.106262,107.526688 681.463867,105.094498 
	C682.249207,107.891937 682.732605,110.458633 683.126587,113.482880 
	C683.016602,114.772301 682.978027,115.604164 682.978027,116.436028 
	C682.974915,233.791000 682.973694,351.145966 682.983459,468.500946 
	C682.983582,469.993561 683.125793,471.486206 683.080078,473.410767 
	C682.980835,476.228638 683.003174,478.614563 682.885498,481.393097 
	C682.600281,483.166046 682.455078,484.546387 682.309875,485.926758 
	C682.309875,485.926758 682.203308,485.717682 681.796875,485.923676 
	C681.187561,486.759735 680.984619,487.389801 680.781677,488.019836 
z"/>
<path fill="#DAEEEF" opacity="1.000000" stroke="none" 
	d="
M491.000000,85.000000 
	C444.909058,85.000000 399.318085,85.000000 353.727142,85.000000 
	C353.606720,84.355675 353.486298,83.711342 353.365875,83.067017 
	C355.124146,82.711411 356.880280,82.060204 358.640961,82.047646 
	C371.136932,81.958496 383.636536,82.167923 396.129944,81.968216 
	C432.210419,81.391449 468.286591,80.460327 504.368713,80.120819 
	C515.773499,80.013519 527.192505,81.908249 538.603699,81.893021 
	C575.555115,81.843727 612.505981,81.332832 649.457031,81.000938 
	C650.290100,80.993454 651.187988,80.798660 651.943115,81.041451 
	C653.602600,81.575012 655.189941,82.333183 656.806702,82.999657 
	C655.190063,83.666245 653.574463,84.912392 651.956543,84.915459 
	C598.471191,85.017151 544.985596,84.999809 491.000000,85.000000 
z"/>
<path fill="#ECDCDE" opacity="1.000000" stroke="none" 
	d="
M180.066589,493.521423 
	C184.403580,497.721527 189.881989,498.000244 195.443039,498.000000 
	C312.599426,497.995026 429.755798,497.989471 546.912170,497.986725 
	C584.742188,497.985840 622.572449,498.061340 660.401733,497.900208 
	C664.636841,497.882202 668.866272,496.542236 673.480957,495.718567 
	C672.756042,496.744019 671.777161,498.637543 670.517517,498.847717 
	C666.294128,499.552429 661.971069,499.937378 657.685181,499.946167 
	C620.434692,500.022675 583.183960,499.990356 544.996216,499.989319 
	C428.938446,499.987366 313.817871,499.981659 198.697311,500.027252 
	C196.793564,500.028015 194.890060,500.653137 192.986450,500.986908 
	C184.146393,500.941193 172.962097,492.158020 171.370941,483.376831 
	C172.108932,482.992432 172.530685,482.994873 173.123199,483.171234 
	C173.627808,483.680328 173.961655,484.015442 174.320343,484.554138 
	C174.345169,484.757721 174.636322,485.046661 174.639771,485.430969 
	C175.101166,486.986633 175.559097,488.157959 176.090515,489.480896 
	C176.297562,489.823486 176.473740,489.959229 176.792114,490.015259 
	C176.891724,489.990875 177.090576,489.940613 177.084290,490.288757 
	C178.054535,491.601318 179.031097,492.565735 180.037689,493.517273 
	C180.067734,493.504364 180.066589,493.521423 180.066589,493.521423 
z"/>
<path fill="#DAEEEF" opacity="1.000000" stroke="none" 
	d="
M169.993912,401.998779 
	C169.245575,401.998962 168.497238,401.999146 167.374756,401.999054 
	C167.000610,308.094757 166.986618,214.190735 167.091278,120.286842 
	C167.093597,118.205597 168.448166,116.125854 169.586151,114.491455 
	C169.998215,210.624603 169.996063,306.311676 169.993912,401.998779 
z"/>
<path fill="#FCECF1" opacity="1.000000" stroke="none" 
	d="
M683.201660,472.978821 
	C683.125793,471.486206 682.983582,469.993561 682.983459,468.500946 
	C682.973694,351.145966 682.974915,233.791000 682.978027,116.436028 
	C682.978027,115.604164 683.016602,114.772301 683.420898,113.484154 
	C684.197083,113.013596 684.589661,112.999321 684.982178,112.985046 
	C684.986084,232.679428 684.989929,352.373810 684.692383,472.530975 
	C683.994446,472.988770 683.598083,472.983795 683.201660,472.978821 
z"/>
<path fill="#F2DDDE" opacity="1.000000" stroke="none" 
	d="
M674.911377,91.063583 
	C676.906250,93.805443 678.901123,96.547310 680.741577,99.848328 
	C680.449463,100.543297 680.311829,100.679115 679.927795,100.618629 
	C678.629456,99.472939 677.577515,98.523552 676.488159,97.555862 
	C676.450684,97.537544 676.391541,97.478592 676.256226,97.201157 
	C675.079773,96.250961 674.038696,95.578201 672.847046,94.650360 
	C672.140686,94.242577 671.584778,94.089867 670.792114,93.670174 
	C668.677490,92.881172 666.799683,92.359154 664.600952,91.590637 
	C662.626831,91.241020 660.973633,91.048065 659.320374,91.047691 
	C578.514221,91.029541 497.708099,91.036415 416.901978,91.022079 
	C341.594421,91.008713 266.286835,90.974731 191.108276,90.751831 
	C191.447647,90.308525 191.704788,90.130867 192.008667,90.020859 
	C192.008667,90.020859 192.498535,90.026268 193.213577,90.023521 
	C222.956406,90.019188 251.984177,90.017601 281.011963,90.016006 
	C357.360443,90.015533 433.708893,90.015060 510.995056,90.014076 
	C566.258911,90.363571 620.585144,90.713577 674.911377,91.063583 
z"/>
<path fill="#D04C55" opacity="1.000000" stroke="none" 
	d="
M664.921875,91.837143 
	C666.799683,92.359154 668.677490,92.881172 670.531494,93.953979 
	C668.689270,94.645515 666.870972,94.786255 664.730530,94.659393 
	C662.929260,94.250832 661.450134,93.986488 659.970947,93.986389 
	C503.656677,93.976387 347.342407,93.986229 190.626434,93.989532 
	C189.154205,93.998138 188.083633,94.012123 187.011627,93.776520 
	C187.010162,93.526932 187.004517,93.027794 187.004517,93.027794 
	C187.134598,92.727234 187.337524,92.488663 188.228119,92.272964 
	C189.912323,92.210693 190.981720,92.187523 192.378235,92.405190 
	C194.523911,92.758614 196.342468,92.969589 198.161057,92.969772 
	C349.154449,92.985123 500.147827,92.987068 651.141235,92.951271 
	C653.077148,92.950813 655.012878,92.454208 657.356934,92.136551 
	C658.860046,92.118851 659.954956,92.153793 661.279358,92.393845 
	C662.672791,92.500366 663.836792,92.401787 665.009583,92.181854 
	C665.018433,92.060501 664.921875,91.837143 664.921875,91.837143 
z"/>
<path fill="#EDBEBE" opacity="1.000000" stroke="none" 
	d="
M661.049866,92.188736 
	C659.954956,92.153793 658.860046,92.118851 656.896973,92.070709 
	C655.195801,92.041779 654.362732,92.012329 653.529663,92.012268 
	C501.199982,92.001564 348.870270,91.992439 196.540588,91.991730 
	C195.044098,91.991722 193.547623,92.104317 192.051132,92.164345 
	C190.981720,92.187523 189.912323,92.210693 188.444717,92.175308 
	C188.046707,91.934822 188.046875,91.752907 188.420715,91.299263 
	C189.522690,91.001633 190.250977,90.975731 190.979263,90.949821 
	C266.286835,90.974731 341.594421,91.008713 416.901978,91.022079 
	C497.708099,91.036415 578.514221,91.029541 659.320374,91.047691 
	C660.973633,91.048065 662.626831,91.241020 664.600952,91.590637 
	C664.921875,91.837143 665.018433,92.060501 664.624268,92.076149 
	C663.170044,92.124115 662.109985,92.156425 661.049866,92.188736 
z"/>
<path fill="#FDE8ED" opacity="1.000000" stroke="none" 
	d="
M172.952423,482.997284 
	C172.530685,482.994873 172.108932,482.992432 171.372009,482.987366 
	C171.038315,482.536499 171.019836,482.088257 170.994125,480.838867 
	C170.985550,357.698273 170.984192,235.358856 170.982834,113.019417 
	C171.148361,112.475441 171.313889,111.931458 171.728638,111.668533 
	C171.987976,227.518921 171.994354,343.088257 172.037109,458.657562 
	C172.037888,460.773102 172.471893,462.888519 172.740875,465.468933 
	C172.916351,470.962677 173.054733,475.991425 173.144287,481.348816 
	C173.047791,482.117371 173.000107,482.557343 172.952423,482.997284 
z"/>
<path fill="#C15D5F" opacity="1.000000" stroke="none" 
	d="
M173.193115,481.020203 
	C173.054733,475.991425 172.916351,470.962677 172.849197,465.011292 
	C172.944534,463.423309 172.989746,462.757904 172.989761,462.092499 
	C172.993820,346.532776 172.995743,230.973068 172.983429,115.413345 
	C172.983261,113.923149 172.799973,112.432961 172.702148,110.942772 
	C172.800461,110.503761 172.898773,110.064743 173.344925,109.324631 
	C173.692764,109.023521 174.124878,109.054451 174.095856,109.516197 
	C174.040680,177.054718 173.992340,244.131500 173.995193,311.208282 
	C173.997604,367.798615 174.059402,424.388916 173.869659,480.993469 
	C173.644379,481.007660 173.193115,481.020203 173.193115,481.020203 
z"/>
<path fill="#D7DCE0" opacity="1.000000" stroke="none" 
	d="
M170.771881,113.131355 
	C170.984192,235.358856 170.985550,357.698273 170.982391,480.502441 
	C170.653915,475.955719 170.329956,470.944244 170.003815,465.000275 
	C169.999405,459.378967 169.997177,454.690155 169.994934,450.001373 
	C169.996765,434.313019 169.998611,418.624695 169.997192,402.467560 
	C169.996063,306.311676 169.998215,210.624603 169.996552,114.468887 
	C170.110703,113.694305 170.300110,113.441978 170.771881,113.131355 
z"/>
<path fill="#FAC2C5" opacity="1.000000" stroke="none" 
	d="
M172.506104,110.947617 
	C172.799973,112.432961 172.983261,113.923149 172.983429,115.413345 
	C172.995743,230.973068 172.993820,346.532776 172.989761,462.092499 
	C172.989746,462.757904 172.944534,463.423309 172.812073,464.546356 
	C172.471893,462.888519 172.037888,460.773102 172.037109,458.657562 
	C171.994354,343.088257 171.987976,227.518921 171.950607,111.483688 
	C171.923340,111.017784 172.310059,110.952461 172.506104,110.947617 
z"/>
<path fill="#CFE9E4" opacity="1.000000" stroke="none" 
	d="
M193.239838,500.991333 
	C194.890060,500.653137 196.793564,500.028015 198.697311,500.027252 
	C313.817871,499.981659 428.938446,499.987366 544.527222,499.991364 
	C542.926880,500.328461 540.858398,500.953827 538.789734,500.954681 
	C424.172272,501.003082 309.554779,500.999176 194.468658,501.002136 
	C193.831070,501.001007 193.662155,500.998383 193.239838,500.991333 
z"/>
<path fill="#D6EDEF" opacity="1.000000" stroke="none" 
	d="
M675.254028,90.984741 
	C620.585144,90.713577 566.258911,90.363571 511.463318,90.009995 
	C513.059509,89.670128 515.124817,89.042976 517.190857,89.040375 
	C561.440613,88.984680 605.690491,89.028870 649.940063,88.930618 
	C652.806396,88.924248 655.656433,87.822479 658.541504,87.433540 
	C659.955505,87.242920 661.431885,87.541824 662.881104,87.579880 
	C666.497192,87.674843 670.114319,87.732788 673.730042,87.839188 
	C674.614197,87.865204 675.494568,88.020325 676.376587,88.116074 
	C676.116577,89.046013 675.856628,89.975952 675.254028,90.984741 
z"/>
<path fill="#D6EDEF" opacity="1.000000" stroke="none" 
	d="
M280.704529,89.731926 
	C251.984177,90.017601 222.956406,90.019188 193.458466,90.018555 
	C194.219604,89.677155 195.450302,89.044472 196.682266,89.041946 
	C223.780380,88.986404 250.878632,88.996872 277.976837,89.020409 
	C278.783752,89.021111 279.590363,89.299126 280.704529,89.731926 
z"/>
<path fill="#D6EDEF" opacity="1.000000" stroke="none" 
	d="
M172.012985,105.013176 
	C171.493423,106.325745 170.973877,107.638313 170.664078,108.420944 
	C169.742035,107.755119 168.797012,106.831383 167.665863,106.317017 
	C166.254059,105.675034 163.481339,105.525368 163.400040,104.892776 
	C163.056610,102.220406 161.623367,98.911522 165.279526,97.097580 
	C166.679337,98.465363 167.961304,99.718010 169.621643,100.985336 
	C170.632431,102.120636 171.264862,103.241272 171.948639,104.680954 
	C172.000000,105.000000 172.012985,105.013176 172.012985,105.013176 
z"/>
<path fill="#CE575E" opacity="1.000000" stroke="none" 
	d="
M174.124878,109.054451 
	C174.124878,109.054451 173.692764,109.023521 173.476562,109.013901 
	C173.197281,108.843483 173.134201,108.682678 173.138275,107.936676 
	C173.219299,106.650764 173.233170,105.950035 173.247040,105.249313 
	C173.247040,105.249313 173.257095,105.197052 173.513489,104.968018 
	C173.977280,103.870842 174.184662,103.002708 174.392059,102.134575 
	C177.309509,97.757034 180.567490,93.822838 186.622742,93.030602 
	C187.004517,93.027794 187.010162,93.526932 186.769531,94.014389 
	C183.944611,96.861710 181.523331,99.440979 178.728546,101.517509 
	C176.123703,103.452896 174.515625,105.581490 174.739685,108.948700 
	C174.534286,108.979324 174.124878,109.054451 174.124878,109.054451 
z"/>
<path fill="#F2DDDE" opacity="1.000000" stroke="none" 
	d="
M684.985352,112.540810 
	C684.589661,112.999321 684.197083,113.013596 683.510254,113.026596 
	C682.732605,110.458633 682.249207,107.891937 681.435608,105.115417 
	C681.105347,104.905594 681.170654,104.925110 681.182800,104.564255 
	C680.854736,103.073914 680.514465,101.944427 680.174255,100.814934 
	C680.311829,100.679115 680.449463,100.543297 680.793579,100.203735 
	C682.049377,101.281487 683.643188,102.418686 684.029297,103.875931 
	C684.728821,106.515511 684.708435,109.345863 684.985352,112.540810 
z"/>
<path fill="#D6EDEF" opacity="1.000000" stroke="none" 
	d="
M191.108276,90.751831 
	C190.250977,90.975731 189.522690,91.001633 188.431656,91.026611 
	C186.028122,90.909325 183.987335,90.792961 181.118515,90.629387 
	C185.906357,87.375313 186.938538,87.311737 191.771301,89.734169 
	C191.704788,90.130867 191.447647,90.308525 191.108276,90.751831 
z"/>
<path fill="#F2DDDE" opacity="1.000000" stroke="none" 
	d="
M683.080078,473.410767 
	C683.598083,472.983795 683.994446,472.988770 684.688110,472.998108 
	C684.842041,475.479034 684.698730,477.955597 684.040405,480.725128 
	C683.358826,481.012238 683.192200,481.006378 683.025513,481.000519 
	C683.003174,478.614563 682.980835,476.228638 683.080078,473.410767 
z"/>
<path fill="#D6EDEF" opacity="1.000000" stroke="none" 
	d="
M170.363525,100.992584 
	C170.901535,99.760155 171.803055,98.520302 172.704590,97.280449 
	C173.186203,97.788109 173.667816,98.295769 174.149445,98.803436 
	C173.008636,99.530678 171.867844,100.257919 170.363525,100.992584 
z"/>
<path fill="#ECDCDE" opacity="1.000000" stroke="none" 
	d="
M676.286133,493.977539 
	C677.314575,492.244537 678.733337,490.525787 680.433594,488.609436 
	C681.325745,491.688080 680.021484,493.578461 676.286133,493.977539 
z"/>
<path fill="#FCECF1" opacity="1.000000" stroke="none" 
	d="
M682.885498,481.393097 
	C683.192200,481.006378 683.358826,481.012238 683.775757,481.024200 
	C683.709045,482.566101 683.392029,484.101868 682.692444,485.782227 
	C682.455078,484.546387 682.600281,483.166046 682.885498,481.393097 
z"/>
<path fill="#FAC2C5" opacity="1.000000" stroke="none" 
	d="
M174.061218,102.283768 
	C174.184662,103.002708 173.977280,103.870842 173.502991,104.943558 
	C173.400864,104.243088 173.565613,103.338020 174.061218,102.283768 
z"/>
<path fill="#FAC2C5" opacity="1.000000" stroke="none" 
	d="
M172.942047,105.172165 
	C173.233170,105.950035 173.219299,106.650764 173.081665,107.683823 
	C172.656204,107.235130 172.354507,106.454102 172.032898,105.343124 
	C172.012985,105.013176 172.000000,105.000000 172.006561,105.006729 
	C172.221100,105.040642 172.429077,105.067833 172.942047,105.172165 
z"/>
<path fill="#ECDCDE" opacity="1.000000" stroke="none" 
	d="
M681.075928,487.848633 
	C680.984619,487.389801 681.187561,486.759735 681.686035,485.962219 
	C681.777832,486.422302 681.574036,487.049866 681.075928,487.848633 
z"/>
<path fill="#DAEEEF" opacity="1.000000" stroke="none" 
	d="
M169.608002,450.107330 
	C169.997177,454.690155 169.999405,459.378967 170.000824,464.533875 
	C169.336868,464.036591 168.076813,463.049255 168.114304,462.113922 
	C168.273636,458.138672 168.817566,454.178772 169.608002,450.107330 
z"/>
<path fill="#F13738" opacity="1.000000" stroke="none" 
	d="
M174.945099,108.918083 
	C174.515625,105.581490 176.123703,103.452896 178.728546,101.517509 
	C181.523331,99.440979 183.944611,96.861710 186.770981,94.263969 
	C188.083633,94.012123 189.154205,93.998138 190.928604,94.272095 
	C193.609665,94.704651 195.586807,94.974739 197.564102,94.975609 
	C250.062912,94.998688 302.561737,95.001228 355.060547,94.992516 
	C458.391235,94.975372 561.721924,94.949341 665.052612,94.926987 
	C666.870972,94.786255 668.689270,94.645515 670.768311,94.220970 
	C671.584778,94.089867 672.140686,94.242577 672.866821,95.019417 
	C674.155212,96.255234 675.273376,96.866913 676.391541,97.478592 
	C676.391541,97.478592 676.450684,97.537544 676.336121,97.933678 
	C677.871216,100.528252 679.520935,102.726685 681.170654,104.925110 
	C681.170654,104.925110 681.105347,104.905594 681.133606,104.884674 
	C681.106262,107.526688 681.002380,110.189621 681.002197,112.852554 
	C680.994080,234.018143 680.995300,355.183746 680.994751,476.349335 
	C680.994690,485.224823 677.233582,489.930176 669.381226,493.606628 
	C664.163147,496.049774 659.222107,497.167755 653.643433,496.088928 
	C652.197144,495.809204 650.651550,496.042114 649.151550,496.042114 
	C497.986206,496.042145 346.820892,496.048492 195.655563,496.002380 
	C192.369278,496.001373 189.083206,495.399658 185.287949,494.628784 
	C183.671051,494.027618 182.563232,493.875793 181.492935,493.670013 
	C181.530457,493.616058 181.632919,493.533722 181.687469,493.217346 
	C181.487762,492.590790 181.233521,492.280609 180.728058,491.759155 
	C179.348099,491.012115 178.219345,490.476349 177.090576,489.940613 
	C177.090576,489.940613 176.891724,489.990875 176.880859,489.826813 
	C176.870010,489.662750 176.917297,489.248474 176.953400,488.842682 
	C176.205109,487.306824 175.420715,486.176758 174.636322,485.046661 
	C174.636322,485.046661 174.345169,484.757721 174.670715,484.362274 
	C175.300293,483.004272 175.604340,482.041748 175.937912,480.602417 
	C175.976852,359.339630 175.989883,238.553619 175.956512,117.767624 
	C175.956085,116.189529 175.365952,114.611595 175.039444,112.623459 
	C175.000244,111.114922 174.972672,110.016502 174.945099,108.918083 
M255.081436,410.399719 
	C256.876984,409.931793 258.688019,409.021942 260.464966,409.084290 
	C264.681152,409.232300 267.812775,407.323792 269.288666,403.808655 
	C272.925598,395.146423 273.774628,382.391937 262.872833,376.148254 
	C258.879822,373.861359 254.179947,372.454651 249.623383,371.582581 
	C241.172775,369.965149 232.783600,370.839752 225.047165,374.872345 
	C223.441757,375.709198 222.517212,377.852203 221.039810,379.897034 
	C220.468292,380.349426 219.896774,380.801819 218.593201,381.153015 
	C218.001892,381.422363 217.242905,381.540558 216.843826,381.983215 
	C206.994553,392.907898 210.600372,411.450287 223.750519,418.026184 
	C227.166946,419.734589 230.419540,421.770599 233.747375,423.656128 
	C233.554337,424.056488 233.361298,424.456818 233.168274,424.857147 
	C232.094559,424.640045 231.016022,424.444214 229.947891,424.202454 
	C219.448761,421.825958 210.028442,429.258057 210.012604,439.936707 
	C209.999237,448.957581 215.679535,455.471313 224.423630,458.412231 
	C234.333084,461.745117 244.181213,461.017578 253.815781,458.698059 
	C260.424774,457.106934 267.305511,454.158600 270.459412,447.355286 
	C275.042450,437.469147 275.210938,424.408264 263.689209,415.869080 
	C261.036224,413.902863 257.793732,412.732086 254.907806,410.993286 
	C254.907806,410.993286 254.800766,411.185974 255.081436,410.399719 
M385.071442,256.119659 
	C378.944031,243.566803 366.896606,237.901230 355.222107,231.109436 
	C356.838501,229.907227 357.961700,228.996658 359.157288,228.193848 
	C378.052246,215.506073 385.140381,195.035446 377.731567,173.671478 
	C370.963867,154.156189 358.032532,140.168900 337.873077,135.087677 
	C325.589600,131.991608 312.589386,130.949158 299.863525,130.566299 
	C275.219147,129.824890 250.541122,130.198456 225.877014,130.116043 
	C221.270370,130.100647 216.663635,130.113846 211.216461,130.113846 
	C228.511200,205.382294 226.821762,279.798676 211.881516,354.425110 
	C214.011063,354.629639 215.313049,354.864471 216.614868,354.863495 
	C243.113098,354.843964 269.613342,354.984406 296.108856,354.695740 
	C316.406525,354.474609 336.404480,351.723633 354.822296,342.693573 
	C362.735352,338.813904 369.716461,333.033417 377.717590,327.822327 
	C381.626495,322.768829 386.371429,318.149567 389.269043,312.570801 
	C395.171417,301.207031 395.153229,288.796661 392.290375,276.617432 
	C390.696564,269.836975 387.593872,263.411255 385.071442,256.119659 
M519.805176,289.116211 
	C522.961609,293.802704 526.117981,298.489197 529.389526,303.744080 
	C529.490234,303.909088 529.590942,304.074127 529.854919,304.929688 
	C530.752563,306.524231 531.634644,308.127808 532.550293,309.711945 
	C539.790527,322.237610 547.125122,334.790222 549.353943,349.350769 
	C550.037231,353.814606 551.535217,355.013428 555.883911,354.983337 
	C583.212097,354.794067 610.542175,354.881989 637.871582,354.859680 
	C639.630432,354.858246 641.389099,354.701385 643.956604,354.577942 
	C642.700745,352.649506 642.048706,351.351929 641.128723,350.285461 
	C636.457886,344.871185 631.476868,339.707153 627.048157,334.104797 
	C615.115356,319.009949 602.998535,304.032043 591.754578,288.431274 
	C584.261047,278.034180 578.369751,266.519012 576.880981,253.411850 
	C575.073425,237.499649 579.389038,222.763107 586.082581,208.583328 
	C594.988770,189.716476 606.725586,172.602936 619.018616,155.840302 
	C621.650879,152.250931 624.127869,148.547668 626.856140,144.887192 
	C626.856140,144.887192 626.929810,144.722946 627.589905,144.734665 
	C631.960022,140.196579 636.330200,135.658478 640.900269,130.912735 
	C639.810913,130.456253 639.517273,130.225632 639.223572,130.225418 
	C609.568665,130.203583 579.913391,130.262527 550.259155,130.116638 
	C546.380920,130.097565 546.297729,132.342972 545.642273,135.050812 
	C542.916260,146.312851 540.746155,157.795135 536.912292,168.682541 
	C531.650513,183.624878 522.232056,196.229309 511.031891,208.775299 
	C510.765533,206.549622 510.406158,205.313934 510.507446,204.117233 
	C511.447876,193.006424 512.198914,181.869843 513.537354,170.805161 
	C514.975525,158.916031 517.026489,147.101898 518.717224,135.241791 
	C519.086121,132.653778 519.807556,129.828201 515.310791,129.856476 
	C490.490631,130.012665 465.669403,130.057938 440.848785,130.014786 
	C437.085907,130.008240 435.757721,130.963104 436.773590,134.966095 
	C438.490387,141.730835 439.908875,148.585571 441.127441,155.460114 
	C448.936035,199.512390 450.589020,243.854416 446.106323,288.324463 
	C444.123505,307.994568 440.839050,327.544800 437.736328,347.084503 
	C436.657440,353.878845 436.411560,354.337677 443.276672,354.353943 
	C465.934753,354.407654 488.593140,354.379272 511.251282,354.333923 
	C513.533813,354.329376 515.815735,353.995697 518.896912,353.751404 
	C511.027374,328.252777 508.482880,302.583496 508.595428,276.336304 
	C510.868011,277.449677 512.306519,278.864838 513.550964,280.433899 
	C515.599487,283.016815 517.522461,285.699280 519.553406,288.391266 
	C519.553406,288.391266 519.583374,288.460358 519.805176,289.116211 
M455.975708,388.740753 
	C458.910065,410.628052 458.096771,432.426788 453.812866,454.188629 
	C455.168213,454.540466 455.949982,454.919220 456.732056,454.919952 
	C468.211548,454.930725 479.714996,455.338287 491.163147,454.725128 
	C500.692780,454.214722 508.730072,449.898346 514.227844,441.763611 
	C520.921082,431.860016 522.285156,420.678894 520.840271,409.220062 
	C518.706360,392.296906 507.586517,380.277710 491.080048,377.505035 
	C482.775116,376.110016 474.199951,375.971527 465.742767,375.916412 
	C452.746277,375.831665 452.736969,372.785309 455.975708,388.740753 
M394.380768,421.877411 
	C390.507385,413.799957 391.454132,405.262787 392.463226,396.880951 
	C393.285614,390.049835 395.060852,383.333435 396.441376,376.427246 
	C387.051331,376.427246 377.692841,376.427246 367.686371,376.427246 
	C368.302368,379.212280 368.924042,381.415192 369.261566,383.660828 
	C370.341980,390.849030 371.760559,398.025146 372.214996,405.258331 
	C372.725372,413.382172 371.888550,421.592804 372.437408,429.711609 
	C373.120087,439.810272 376.779541,448.736542 386.751770,453.138062 
	C398.270355,458.222198 409.550598,457.364990 419.666351,449.506012 
	C428.661560,442.517609 431.290680,432.457184 431.783264,421.662384 
	C432.283447,410.701752 432.407440,399.720093 433.115662,388.774750 
	C433.375702,384.756348 434.836639,380.815582 435.849304,376.406067 
	C426.377625,376.406067 417.552521,376.406067 408.490601,376.406067 
	C409.669006,381.868500 410.921814,386.839966 411.789642,391.877747 
	C413.443695,401.479462 413.997314,411.098480 409.995026,420.326355 
	C406.434784,428.535065 400.741852,429.291473 394.380768,421.877411 
M638.066833,393.490997 
	C635.288940,389.785034 632.839355,385.766998 629.670166,382.433014 
	C621.008911,373.321564 608.991272,371.430420 599.335632,377.589478 
	C575.582153,392.741119 571.396912,425.234192 586.998596,444.769348 
	C600.123169,461.202881 624.811707,460.485504 636.353394,442.929779 
	C646.746887,427.120453 646.452148,410.780029 638.066833,393.490997 
M353.839233,391.296967 
	C353.819122,387.297607 354.048950,383.271637 353.628113,379.314880 
	C353.500244,378.112549 351.586334,376.154297 350.474213,376.143005 
	C330.812103,375.943329 311.146973,375.939026 291.484589,376.119293 
	C290.332458,376.129852 288.267700,378.014496 288.209625,379.110809 
	C287.887512,385.190918 288.055237,391.296936 288.055237,397.912994 
	C290.031830,396.399536 291.455139,395.310364 292.877777,394.220337 
	C300.257111,388.566040 308.616821,390.782074 310.533875,399.809418 
	C311.991455,406.673157 312.027039,414.040649 311.458160,421.084076 
	C310.669739,430.845551 308.881500,440.541443 307.190460,450.207489 
	C306.516479,454.059875 307.761108,455.477570 311.428436,455.386353 
	C315.088654,455.295258 318.749817,455.223633 322.410980,455.196930 
	C326.800842,455.164886 331.191101,455.189392 335.720612,455.189392 
	C334.174042,443.735046 332.548004,433.398041 331.458527,423.004791 
	C330.767120,416.408722 330.326050,409.693878 330.749268,403.094910 
	C331.407623,392.829803 338.799316,389.360779 347.521423,394.709625 
	C349.274811,395.784882 351.014618,396.882263 353.535248,398.451721 
	C353.667694,395.743378 353.753876,393.980988 353.839233,391.296967 
M537.850891,413.409058 
	C536.990112,425.527527 536.097412,437.643921 535.298462,449.766479 
	C535.157959,451.898468 534.010925,454.988159 537.761169,455.087921 
	C545.366821,455.290131 552.981628,455.148285 561.981323,455.148285 
	C556.308716,428.347015 559.406799,402.411316 564.479980,376.347107 
	C553.957092,376.347107 544.730774,376.347107 535.829895,376.347107 
	C536.517761,388.629395 537.184387,400.532135 537.850891,413.409058 
z"/>
<path fill="#C33837" opacity="1.000000" stroke="none" 
	d="
M181.455414,493.723969 
	C182.563232,493.875793 183.671051,494.027618 184.874115,494.545288 
	C183.975128,494.552490 182.980881,494.193817 181.659088,493.791687 
	C181.331528,493.748230 181.455414,493.723969 181.455414,493.723969 
z"/>
<path fill="#D9EAF1" opacity="1.000000" stroke="none" 
	d="
M181.492935,493.670013 
	C181.455414,493.723969 181.331528,493.748230 181.263443,493.740662 
	C181.020538,493.626831 180.845703,493.520630 180.368744,493.467896 
	C180.066589,493.521423 180.067734,493.504364 180.242554,493.564453 
	C180.417374,493.624512 180.803131,493.457214 181.001144,493.578613 
	C181.199158,493.700043 181.632919,493.533722 181.632919,493.533722 
	C181.632919,493.533722 181.530457,493.616058 181.492935,493.670013 
z"/>
<path fill="#D04C55" opacity="1.000000" stroke="none" 
	d="
M175.908386,481.079193 
	C175.604340,482.041748 175.300293,483.004272 174.645874,484.158691 
	C173.961655,484.015442 173.627808,483.680328 173.123199,483.171234 
	C173.000107,482.557343 173.047791,482.117371 173.144287,481.348816 
	C173.193115,481.020203 173.644379,481.007660 174.103516,481.009338 
	C174.562653,481.011047 175.033096,481.022705 175.252136,481.033508 
	C175.471161,481.044342 175.908386,481.079193 175.908386,481.079193 
z"/>
<path fill="#D04C55" opacity="1.000000" stroke="none" 
	d="
M180.803131,493.457214 
	C180.803131,493.457214 180.417374,493.624512 180.212509,493.577332 
	C179.031097,492.565735 178.054535,491.601318 177.084290,490.288727 
	C178.219345,490.476349 179.348099,491.012115 180.703491,492.133179 
	C180.887802,492.964691 180.845474,493.210968 180.803131,493.457214 
z"/>
<path fill="#D04C55" opacity="1.000000" stroke="none" 
	d="
M174.639771,485.430969 
	C175.420715,486.176758 176.205109,487.306824 176.725616,488.834106 
	C176.461716,489.231293 176.017029,489.329315 176.017029,489.329315 
	C175.559097,488.157959 175.101166,486.986633 174.639771,485.430969 
z"/>
<path fill="#FAC2C5" opacity="1.000000" stroke="none" 
	d="
M176.090515,489.480896 
	C176.017029,489.329315 176.461716,489.231293 176.689514,489.239868 
	C176.917297,489.248474 176.870010,489.662750 176.781265,489.851196 
	C176.473740,489.959229 176.297562,489.823486 176.090515,489.480896 
z"/>
<path fill="#D04C55" opacity="1.000000" stroke="none" 
	d="
M681.182800,104.564262 
	C679.520935,102.726685 677.871216,100.528252 676.373596,97.951996 
	C677.577515,98.523552 678.629456,99.472939 679.927795,100.618629 
	C680.514465,101.944427 680.854736,103.073914 681.182800,104.564262 
z"/>
<path fill="#D04C55" opacity="1.000000" stroke="none" 
	d="
M676.256226,97.201157 
	C675.273376,96.866913 674.155212,96.255234 673.017334,95.274498 
	C674.038696,95.578201 675.079773,96.250961 676.256226,97.201157 
z"/>
<path fill="#FA3D49" opacity="1.000000" stroke="none" 
	d="
M664.730530,94.659393 
	C561.721924,94.949341 458.391235,94.975372 355.060547,94.992516 
	C302.561737,95.001228 250.062912,94.998688 197.564102,94.975609 
	C195.586807,94.974739 193.609665,94.704651 191.330292,94.277466 
	C347.342407,93.986229 503.656677,93.976387 659.970947,93.986389 
	C661.450134,93.986488 662.929260,94.250832 664.730530,94.659393 
z"/>
<path fill="#BD595F" opacity="1.000000" stroke="none" 
	d="
M192.378235,92.405190 
	C193.547623,92.104317 195.044098,91.991722 196.540588,91.991730 
	C348.870270,91.992439 501.199982,92.001564 653.529663,92.012268 
	C654.362732,92.012329 655.195801,92.041779 656.488770,92.123352 
	C655.012878,92.454208 653.077148,92.950813 651.141235,92.951271 
	C500.147827,92.987068 349.154449,92.985123 198.161057,92.969772 
	C196.342468,92.969589 194.523911,92.758614 192.378235,92.405190 
z"/>
<path fill="#BD595F" opacity="1.000000" stroke="none" 
	d="
M661.279358,92.393845 
	C662.109985,92.156425 663.170044,92.124115 664.615479,92.197502 
	C663.836792,92.401787 662.672791,92.500366 661.279358,92.393845 
z"/>
<path fill="#C33837" opacity="1.000000" stroke="none" 
	d="
M175.033096,481.022705 
	C175.033096,481.022705 174.562653,481.011047 174.328796,480.995148 
	C174.059402,424.388916 173.997604,367.798615 173.995193,311.208282 
	C173.992340,244.131500 174.040680,177.054718 174.095856,109.516197 
	C174.124878,109.054451 174.534286,108.979324 174.739685,108.948700 
	C174.972672,110.016502 175.000244,111.114922 175.022400,113.087738 
	C175.022354,236.315659 175.027725,358.669189 175.033096,481.022705 
z"/>
<path fill="#D9E8EF" opacity="1.000000" stroke="none" 
	d="
M529.691650,304.239136 
	C529.590942,304.074127 529.490234,303.909088 529.641113,303.324951 
	C527.847351,297.097931 525.393005,291.581848 519.583374,288.460358 
	C519.583374,288.460358 519.553406,288.391266 519.677307,287.978851 
	C519.402893,286.205048 519.292419,284.658051 518.555481,283.514954 
	C515.642578,278.996552 512.533386,274.604736 509.317963,269.904297 
	C505.048126,270.947906 504.858978,274.558868 505.173859,278.341797 
	C506.108856,289.575165 506.641022,300.869293 508.215973,312.014557 
	C509.835083,323.472229 512.177551,334.858063 514.840759,346.124695 
	C516.134338,351.597076 516.110962,352.558258 510.461792,352.966156 
	C509.135406,353.061890 507.796967,353.000549 506.464142,352.996246 
	C485.035675,352.926758 463.606689,352.898651 442.180450,352.640930 
	C441.210205,352.629272 439.231506,350.223175 439.463013,349.460999 
	C442.959320,337.950989 444.194366,326.118195 445.147858,314.206940 
	C446.654999,295.378967 449.093475,276.590912 449.736298,257.738159 
	C450.376068,238.974670 449.489349,220.145538 448.863617,201.358780 
	C448.593994,193.263687 447.574188,185.162231 446.402771,177.135529 
	C444.417236,163.530579 442.227295,149.948074 439.718262,136.431305 
	C438.942383,132.251617 440.714172,131.767792 443.856750,131.974335 
	C447.989838,132.246017 452.116302,132.846390 456.248077,132.869568 
	C474.242126,132.970596 492.237122,132.913544 510.231750,132.913895 
	C512.329895,132.913940 514.427979,132.913895 516.889709,132.913895 
	C515.869873,139.999069 515.049988,146.247345 514.054993,152.467606 
	C512.808777,160.258514 511.079620,167.987457 510.180389,175.814545 
	C509.159485,184.701248 508.704529,193.660782 508.254669,202.601303 
	C508.083740,205.998627 507.759766,209.773972 511.591522,212.118515 
	C512.838806,210.358871 513.692261,208.960724 514.732178,207.718628 
	C522.901245,197.961029 530.634766,187.925552 536.087646,176.309006 
	C541.542725,164.687790 545.643799,152.689209 547.042114,139.852158 
	C547.773926,133.133423 550.474548,131.247498 557.222229,132.484955 
	C558.360168,132.693634 559.521484,132.894623 560.672180,132.896057 
	C582.832214,132.923508 604.992371,132.941544 627.152283,132.894669 
	C629.615845,132.889450 632.078430,132.478973 635.466431,132.172882 
	C633.662781,134.804092 632.548340,136.417801 631.446594,138.040070 
	C629.935974,140.264282 628.434937,142.495010 626.929810,144.722946 
	C626.929810,144.722946 626.856140,144.887192 626.435486,144.933411 
	C620.911255,151.171982 615.482422,157.128952 610.786987,163.616669 
	C604.997742,171.615555 599.239990,179.740555 594.524841,188.387039 
	C588.800781,198.883728 583.751343,209.807571 579.245667,220.886475 
	C576.671326,227.216583 574.927307,234.141769 574.265869,240.940704 
	C572.728882,256.740448 578.354248,271.144592 586.118774,284.325317 
	C592.659424,295.428406 600.726196,305.701233 608.739502,315.850372 
	C618.571289,328.302582 629.050110,340.243866 639.253784,352.411499 
	C639.060486,352.545319 638.801453,352.881653 638.541687,352.882202 
	C610.552307,352.940033 582.562683,353.006012 554.573853,352.890106 
	C553.406494,352.885284 551.304077,351.237885 551.231445,350.239655 
	C550.645325,342.189850 548.262878,334.795685 544.381470,327.754517 
	C540.587219,320.871490 537.163269,313.784210 533.356934,306.908264 
	C532.693359,305.709564 530.941101,305.113525 529.691650,304.239136 
z"/>
<path fill="#DDE4EB" opacity="1.000000" stroke="none" 
	d="
M455.908295,388.309509 
	C452.736969,372.785309 452.746277,375.831665 465.742767,375.916412 
	C474.199951,375.971527 482.775116,376.110016 491.080048,377.505035 
	C507.586517,380.277710 518.706360,392.296906 520.840271,409.220062 
	C522.285156,420.678894 520.921082,431.860016 514.227844,441.763611 
	C508.730072,449.898346 500.692780,454.214722 491.163147,454.725128 
	C479.714996,455.338287 468.211548,454.930725 456.732056,454.919952 
	C455.949982,454.919220 455.168213,454.540466 453.812866,454.188629 
	C458.096771,432.426788 458.910065,410.628052 455.908295,388.309509 
M479.226105,411.698578 
	C479.287476,418.190613 479.278076,424.684387 479.435822,431.174103 
	C479.536072,435.300568 481.493225,436.695923 485.630737,435.367493 
	C492.597992,433.130554 498.582031,425.071045 499.153534,416.671509 
	C499.931061,405.244202 491.782135,396.427307 480.890625,397.689819 
	C480.363220,401.938171 479.815887,406.347015 479.226105,411.698578 
z"/>
<path fill="#DDE3E9" opacity="1.000000" stroke="none" 
	d="
M394.588226,422.202332 
	C400.741852,429.291473 406.434784,428.535065 409.995026,420.326355 
	C413.997314,411.098480 413.443695,401.479462 411.789642,391.877747 
	C410.921814,386.839966 409.669006,381.868500 408.490601,376.406067 
	C417.552521,376.406067 426.377625,376.406067 435.849304,376.406067 
	C434.836639,380.815582 433.375702,384.756348 433.115662,388.774750 
	C432.407440,399.720093 432.283447,410.701752 431.783264,421.662384 
	C431.290680,432.457184 428.661560,442.517609 419.666351,449.506012 
	C409.550598,457.364990 398.270355,458.222198 386.751770,453.138062 
	C376.779541,448.736542 373.120087,439.810272 372.437408,429.711609 
	C371.888550,421.592804 372.725372,413.382172 372.214996,405.258331 
	C371.760559,398.025146 370.341980,390.849030 369.261566,383.660828 
	C368.924042,381.415192 368.302368,379.212280 367.686371,376.427246 
	C377.692841,376.427246 387.051331,376.427246 396.441376,376.427246 
	C395.060852,383.333435 393.285614,390.049835 392.463226,396.880951 
	C391.454132,405.262787 390.507385,413.799957 394.588226,422.202332 
z"/>
<path fill="#DDE4EA" opacity="1.000000" stroke="none" 
	d="
M219.325256,381.254211 
	C219.896774,380.801819 220.468292,380.349426 221.506149,379.555511 
	C234.568848,371.115601 247.797455,371.148071 260.911255,377.215210 
	C269.946259,381.395264 272.621399,396.735626 266.311249,404.173126 
	C263.713318,407.235291 257.913055,408.910889 254.502548,406.471405 
	C251.986435,404.671631 249.492508,401.346466 249.108398,398.422546 
	C248.577255,394.378998 252.634613,393.509216 256.031738,392.971313 
	C256.216217,392.942108 256.342560,392.545624 256.496460,392.319458 
	C250.818253,388.644257 247.031860,388.661987 244.344818,392.357208 
	C241.112686,396.802063 242.031693,403.178284 246.679077,406.533752 
	C249.194626,408.349976 252.081436,409.651978 254.800766,411.185974 
	C254.800766,411.185974 254.907806,410.993286 254.973663,411.405212 
	C257.336792,413.456573 259.743317,414.963776 261.913788,416.756744 
	C277.481262,429.616211 273.232666,446.983765 259.401428,453.994659 
	C249.438049,459.044952 238.885498,459.332214 228.246094,457.307709 
	C224.952057,456.680878 221.669632,454.926910 218.869949,452.985260 
	C212.602417,448.638458 210.188217,439.394287 213.313461,433.434814 
	C216.718704,426.941406 225.581970,423.951202 232.888138,426.890015 
	C236.668091,428.410431 239.713806,430.638062 239.277313,435.311920 
	C238.874771,439.622345 236.630539,442.314362 231.758118,442.383911 
	C236.245834,446.375458 240.038010,445.837189 242.428955,441.214935 
	C245.592834,435.098419 243.756836,427.864105 237.615845,423.645264 
	C234.070343,421.209473 229.922256,419.616272 226.509369,417.031281 
	C222.763214,414.193817 218.602707,411.211670 216.295883,407.304718 
	C210.930801,398.218048 213.731247,389.418854 219.325256,381.254211 
z"/>
<path fill="#DCE4E9" opacity="1.000000" stroke="none" 
	d="
M638.225952,393.824615 
	C646.452148,410.780029 646.746887,427.120453 636.353394,442.929779 
	C624.811707,460.485504 600.123169,461.202881 586.998596,444.769348 
	C571.396912,425.234192 575.582153,392.741119 599.335632,377.589478 
	C608.991272,371.430420 621.008911,373.321564 629.670166,382.433014 
	C632.839355,385.766998 635.288940,389.785034 638.225952,393.824615 
M618.311951,431.840637 
	C624.403625,422.242767 624.107849,412.124664 619.700623,402.242676 
	C618.352905,399.220551 614.855164,396.288513 611.687134,395.169891 
	C607.849243,393.814789 605.424805,397.567719 603.807617,400.704407 
	C599.139221,409.759399 598.196655,419.148560 602.542053,428.587128 
	C605.928894,435.943726 611.239746,437.156158 618.311951,431.840637 
z"/>
<path fill="#DDE3E8" opacity="1.000000" stroke="none" 
	d="
M353.839661,391.757812 
	C353.753876,393.980988 353.667694,395.743378 353.535248,398.451721 
	C351.014618,396.882263 349.274811,395.784882 347.521423,394.709625 
	C338.799316,389.360779 331.407623,392.829803 330.749268,403.094910 
	C330.326050,409.693878 330.767120,416.408722 331.458527,423.004791 
	C332.548004,433.398041 334.174042,443.735046 335.720612,455.189392 
	C331.191101,455.189392 326.800842,455.164886 322.410980,455.196930 
	C318.749817,455.223633 315.088654,455.295258 311.428436,455.386353 
	C307.761108,455.477570 306.516479,454.059875 307.190460,450.207489 
	C308.881500,440.541443 310.669739,430.845551 311.458160,421.084076 
	C312.027039,414.040649 311.991455,406.673157 310.533875,399.809418 
	C308.616821,390.782074 300.257111,388.566040 292.877777,394.220337 
	C291.455139,395.310364 290.031830,396.399536 288.055237,397.912994 
	C288.055237,391.296936 287.887512,385.190918 288.209625,379.110809 
	C288.267700,378.014496 290.332458,376.129852 291.484589,376.119293 
	C311.146973,375.939026 330.812103,375.943329 350.474213,376.143005 
	C351.586334,376.154297 353.500244,378.112549 353.628113,379.314880 
	C354.048950,383.271637 353.819122,387.297607 353.839661,391.757812 
z"/>
<path fill="#EDC0C2" opacity="1.000000" stroke="none" 
	d="
M627.259888,144.728806 
	C628.434937,142.495010 629.935974,140.264282 631.446594,138.040070 
	C632.548340,136.417801 633.662781,134.804092 635.466431,132.172882 
	C632.078430,132.478973 629.615845,132.889450 627.152283,132.894669 
	C604.992371,132.941544 582.832214,132.923508 560.672180,132.896057 
	C559.521484,132.894623 558.360168,132.693634 557.222229,132.484955 
	C550.474548,131.247498 547.773926,133.133423 547.042114,139.852158 
	C545.643799,152.689209 541.542725,164.687790 536.087646,176.309006 
	C530.634766,187.925552 522.901245,197.961029 514.732178,207.718628 
	C513.692261,208.960724 512.838806,210.358871 511.591522,212.118515 
	C507.759766,209.773972 508.083740,205.998627 508.254669,202.601303 
	C508.704529,193.660782 509.159485,184.701248 510.180389,175.814545 
	C511.079620,167.987457 512.808777,160.258514 514.054993,152.467606 
	C515.049988,146.247345 515.869873,139.999069 516.889709,132.913895 
	C514.427979,132.913895 512.329895,132.913940 510.231750,132.913895 
	C492.237122,132.913544 474.242126,132.970596 456.248077,132.869568 
	C452.116302,132.846390 447.989838,132.246017 443.856750,131.974335 
	C440.714172,131.767792 438.942383,132.251617 439.718262,136.431305 
	C442.227295,149.948074 444.417236,163.530579 446.402771,177.135529 
	C447.574188,185.162231 448.593994,193.263687 448.863617,201.358780 
	C449.489349,220.145538 450.376068,238.974670 449.736298,257.738159 
	C449.093475,276.590912 446.654999,295.378967 445.147858,314.206940 
	C444.194366,326.118195 442.959320,337.950989 439.463013,349.460999 
	C439.231506,350.223175 441.210205,352.629272 442.180450,352.640930 
	C463.606689,352.898651 485.035675,352.926758 506.464142,352.996246 
	C507.796967,353.000549 509.135406,353.061890 510.461792,352.966156 
	C516.110962,352.558258 516.134338,351.597076 514.840759,346.124695 
	C512.177551,334.858063 509.835083,323.472229 508.215973,312.014557 
	C506.641022,300.869293 506.108856,289.575165 505.173859,278.341797 
	C504.858978,274.558868 505.048126,270.947906 509.317963,269.904297 
	C512.533386,274.604736 515.642578,278.996552 518.555481,283.514954 
	C519.292419,284.658051 519.402893,286.205048 519.649780,287.953125 
	C517.522461,285.699280 515.599487,283.016815 513.550964,280.433899 
	C512.306519,278.864838 510.868011,277.449677 508.595428,276.336304 
	C508.482880,302.583496 511.027374,328.252777 518.896912,353.751404 
	C515.815735,353.995697 513.533813,354.329376 511.251282,354.333923 
	C488.593140,354.379272 465.934753,354.407654 443.276672,354.353943 
	C436.411560,354.337677 436.657440,353.878845 437.736328,347.084503 
	C440.839050,327.544800 444.123505,307.994568 446.106323,288.324463 
	C450.589020,243.854416 448.936035,199.512390 441.127441,155.460114 
	C439.908875,148.585571 438.490387,141.730835 436.773590,134.966095 
	C435.757721,130.963104 437.085907,130.008240 440.848785,130.014786 
	C465.669403,130.057938 490.490631,130.012665 515.310791,129.856476 
	C519.807556,129.828201 519.086121,132.653778 518.717224,135.241791 
	C517.026489,147.101898 514.975525,158.916031 513.537354,170.805161 
	C512.198914,181.869843 511.447876,193.006424 510.507446,204.117233 
	C510.406158,205.313934 510.765533,206.549622 511.031891,208.775299 
	C522.232056,196.229309 531.650513,183.624878 536.912292,168.682541 
	C540.746155,157.795135 542.916260,146.312851 545.642273,135.050812 
	C546.297729,132.342972 546.380920,130.097565 550.259155,130.116638 
	C579.913391,130.262527 609.568665,130.203583 639.223572,130.225418 
	C639.517273,130.225632 639.810913,130.456253 640.900269,130.912735 
	C636.330200,135.658478 631.960022,140.196579 627.259888,144.728806 
z"/>
<path fill="#DEE4EA" opacity="1.000000" stroke="none" 
	d="
M537.850952,412.921967 
	C537.184387,400.532135 536.517761,388.629395 535.829895,376.347107 
	C544.730774,376.347107 553.957092,376.347107 564.479980,376.347107 
	C559.406799,402.411316 556.308716,428.347015 561.981323,455.148285 
	C552.981628,455.148285 545.366821,455.290131 537.761169,455.087921 
	C534.010925,454.988159 535.157959,451.898468 535.298462,449.766479 
	C536.097412,437.643921 536.990112,425.527527 537.850952,412.921967 
z"/>
<path fill="#EDC0C2" opacity="1.000000" stroke="none" 
	d="
M377.120972,328.116516 
	C369.716461,333.033417 362.735352,338.813904 354.822296,342.693573 
	C336.404480,351.723633 316.406525,354.474609 296.108856,354.695740 
	C269.613342,354.984406 243.113098,354.843964 216.614868,354.863495 
	C215.313049,354.864471 214.011063,354.629639 211.881516,354.425110 
	C226.821762,279.798676 228.511200,205.382294 211.216461,130.113846 
	C216.663635,130.113846 221.270370,130.100647 225.877014,130.116043 
	C250.541122,130.198456 275.219147,129.824890 299.863525,130.566299 
	C312.589386,130.949158 325.589600,131.991608 337.873077,135.087677 
	C358.032532,140.168900 370.963867,154.156189 377.731567,173.671478 
	C385.140381,195.035446 378.052246,215.506073 359.157288,228.193848 
	C357.961700,228.996658 356.838501,229.907227 355.222107,231.109436 
	C366.896606,237.901230 378.944031,243.566803 385.029968,256.563507 
	C384.988495,257.007355 384.805084,257.188324 384.456757,257.089478 
	C383.258087,256.535217 381.870178,256.265289 381.639282,255.596100 
	C378.869354,247.568436 371.972473,243.682632 365.446808,239.600830 
	C360.619415,236.581284 355.351105,234.266632 349.344116,231.153305 
	C352.134705,229.435486 353.910797,227.952423 355.954346,227.153152 
	C363.882629,224.052338 368.324860,217.516342 372.514252,210.729752 
	C373.194427,209.627869 373.064270,208.050140 373.650940,206.861237 
	C374.995239,204.136810 377.275757,201.674942 377.897491,198.827316 
	C380.858734,185.263931 377.307373,172.412125 369.753113,161.602051 
	C358.654602,145.720306 343.308136,135.228806 323.184753,134.026688 
	C310.478729,133.267685 297.729950,133.069077 284.997223,132.949387 
	C266.671692,132.777100 248.343262,132.932739 230.016251,132.881714 
	C226.398224,132.871643 222.778610,132.385071 219.164139,132.435425 
	C215.517578,132.486221 214.347595,134.733292 214.997269,138.119644 
	C215.840668,142.515717 216.891037,146.882278 217.510025,151.309402 
	C220.054398,169.507034 224.094254,187.681656 224.556580,205.941391 
	C225.279465,234.492218 226.889420,263.183624 222.971863,291.693573 
	C220.470016,309.900665 218.000031,328.113403 215.291946,346.290283 
	C214.392288,352.328857 214.691727,353.271515 220.645950,353.024384 
	C253.619690,351.655670 286.709229,355.783417 319.631012,350.294861 
	C331.305847,348.348511 342.542816,345.493652 353.447510,341.111816 
	C356.659241,339.821228 359.793823,338.254608 362.776245,336.496399 
	C367.500427,333.711243 372.066650,330.658173 376.805054,327.817932 
	C376.910400,327.917419 377.120972,328.116516 377.120972,328.116516 
z"/>
<path fill="#EDC0C2" opacity="1.000000" stroke="none" 
	d="
M529.773315,304.584412 
	C530.941101,305.113525 532.693359,305.709564 533.356934,306.908264 
	C537.163269,313.784210 540.587219,320.871490 544.381470,327.754517 
	C548.262878,334.795685 550.645325,342.189850 551.231445,350.239655 
	C551.304077,351.237885 553.406494,352.885284 554.573853,352.890106 
	C582.562683,353.006012 610.552307,352.940033 638.541687,352.882202 
	C638.801453,352.881653 639.060486,352.545319 639.253784,352.411499 
	C629.050110,340.243866 618.571289,328.302582 608.739502,315.850372 
	C600.726196,305.701233 592.659424,295.428406 586.118774,284.325317 
	C578.354248,271.144592 572.728882,256.740448 574.265869,240.940704 
	C574.927307,234.141769 576.671326,227.216583 579.245667,220.886475 
	C583.751343,209.807571 588.800781,198.883728 594.524841,188.387039 
	C599.239990,179.740555 604.997742,171.615555 610.786987,163.616669 
	C615.482422,157.128952 620.911255,151.171982 626.345581,144.938248 
	C624.127869,148.547668 621.650879,152.250931 619.018616,155.840302 
	C606.725586,172.602936 594.988770,189.716476 586.082581,208.583328 
	C579.389038,222.763107 575.073425,237.499649 576.880981,253.411850 
	C578.369751,266.519012 584.261047,278.034180 591.754578,288.431274 
	C602.998535,304.032043 615.115356,319.009949 627.048157,334.104797 
	C631.476868,339.707153 636.457886,344.871185 641.128723,350.285461 
	C642.048706,351.351929 642.700745,352.649506 643.956604,354.577942 
	C641.389099,354.701385 639.630432,354.858246 637.871582,354.859680 
	C610.542175,354.881989 583.212097,354.794067 555.883911,354.983337 
	C551.535217,355.013428 550.037231,353.814606 549.353943,349.350769 
	C547.125122,334.790222 539.790527,322.237610 532.550293,309.711945 
	C531.634644,308.127808 530.752563,306.524231 529.773315,304.584412 
z"/>
<path fill="#CF6065" opacity="1.000000" stroke="none" 
	d="
M218.959229,381.203613 
	C213.731247,389.418854 210.930801,398.218048 216.295883,407.304718 
	C218.602707,411.211670 222.763214,414.193817 226.509369,417.031281 
	C229.922256,419.616272 234.070343,421.209473 237.615845,423.645264 
	C243.756836,427.864105 245.592834,435.098419 242.428955,441.214935 
	C240.038010,445.837189 236.245834,446.375458 231.758118,442.383911 
	C236.630539,442.314362 238.874771,439.622345 239.277313,435.311920 
	C239.713806,430.638062 236.668091,428.410431 232.888138,426.890015 
	C225.581970,423.951202 216.718704,426.941406 213.313461,433.434814 
	C210.188217,439.394287 212.602417,448.638458 218.869949,452.985260 
	C221.669632,454.926910 224.952057,456.680878 228.246094,457.307709 
	C238.885498,459.332214 249.438049,459.044952 259.401428,453.994659 
	C273.232666,446.983765 277.481262,429.616211 261.913788,416.756744 
	C259.743317,414.963776 257.336792,413.456573 254.931030,411.506165 
	C257.793732,412.732086 261.036224,413.902863 263.689209,415.869080 
	C275.210938,424.408264 275.042450,437.469147 270.459412,447.355286 
	C267.305511,454.158600 260.424774,457.106934 253.815781,458.698059 
	C244.181213,461.017578 234.333084,461.745117 224.423630,458.412231 
	C215.679535,455.471313 209.999237,448.957581 210.012604,439.936707 
	C210.028442,429.258057 219.448761,421.825958 229.947891,424.202454 
	C231.016022,424.444214 232.094559,424.640045 233.168274,424.857147 
	C233.361298,424.456818 233.554337,424.056488 233.747375,423.656128 
	C230.419540,421.770599 227.166946,419.734589 223.750519,418.026184 
	C210.600372,411.450287 206.994553,392.907898 216.843826,381.983215 
	C217.242905,381.540558 218.001892,381.422363 218.959229,381.203613 
z"/>
<path fill="#F24443" opacity="1.000000" stroke="none" 
	d="
M175.252136,481.033508 
	C175.027725,358.669189 175.022354,236.315659 175.034027,113.497864 
	C175.365952,114.611595 175.956085,116.189529 175.956512,117.767624 
	C175.989883,238.553619 175.976852,359.339630 175.937912,480.602417 
	C175.908386,481.079193 175.471161,481.044342 175.252136,481.033508 
z"/>
<path fill="#CF6065" opacity="1.000000" stroke="none" 
	d="
M254.941101,410.792847 
	C252.081436,409.651978 249.194626,408.349976 246.679077,406.533752 
	C242.031693,403.178284 241.112686,396.802063 244.344818,392.357208 
	C247.031860,388.661987 250.818253,388.644257 256.496460,392.319458 
	C256.342560,392.545624 256.216217,392.942108 256.031738,392.971313 
	C252.634613,393.509216 248.577255,394.378998 249.108398,398.422546 
	C249.492508,401.346466 251.986435,404.671631 254.502548,406.471405 
	C257.913055,408.910889 263.713318,407.235291 266.311249,404.173126 
	C272.621399,396.735626 269.946259,381.395264 260.911255,377.215210 
	C247.797455,371.148071 234.568848,371.115601 221.625671,379.303619 
	C222.517212,377.852203 223.441757,375.709198 225.047165,374.872345 
	C232.783600,370.839752 241.172775,369.965149 249.623383,371.582581 
	C254.179947,372.454651 258.879822,373.861359 262.872833,376.148254 
	C273.774628,382.391937 272.925598,395.146423 269.288666,403.808655 
	C267.812775,407.323792 264.681152,409.232300 260.464966,409.084290 
	C258.688019,409.021942 256.876984,409.931793 254.941101,410.792847 
z"/>
<path fill="#EDC0C2" opacity="1.000000" stroke="none" 
	d="
M385.079834,256.916504 
	C387.593872,263.411255 390.696564,269.836975 392.290375,276.617432 
	C395.153229,288.796661 395.171417,301.207031 389.269043,312.570801 
	C386.371429,318.149567 381.626495,322.768829 377.419281,327.969421 
	C377.120972,328.116516 376.910400,327.917419 376.890411,327.475830 
	C377.746429,325.711029 378.600189,324.372375 379.502533,323.067322 
	C382.446381,318.809845 386.576050,314.948273 388.123749,310.236206 
	C391.525787,299.878448 393.934448,289.138947 390.637665,278.080963 
	C388.572174,271.152893 386.741272,264.154938 384.805084,257.188324 
	C384.805084,257.188324 384.988495,257.007355 385.079834,256.916504 
z"/>
<path fill="#EDC0C2" opacity="1.000000" stroke="none" 
	d="
M519.694275,288.788269 
	C525.393005,291.581848 527.847351,297.097931 529.583618,303.040771 
	C526.117981,298.489197 522.961609,293.802704 519.694275,288.788269 
z"/>
<path fill="#C33837" opacity="1.000000" stroke="none" 
	d="
M181.001144,493.578613 
	C180.845474,493.210968 180.887802,492.964691 180.954712,492.344421 
	C181.233521,492.280609 181.487762,492.590790 181.687469,493.217346 
	C181.632919,493.533722 181.199158,493.700043 181.001144,493.578613 
z"/>
<path fill="#CE575E" opacity="1.000000" stroke="none" 
	d="
M479.247314,411.227203 
	C479.815887,406.347015 480.363220,401.938171 480.890625,397.689819 
	C491.782135,396.427307 499.931061,405.244202 499.153534,416.671509 
	C498.582031,425.071045 492.597992,433.130554 485.630737,435.367493 
	C481.493225,436.695923 479.536072,435.300568 479.435822,431.174103 
	C479.278076,424.684387 479.287476,418.190613 479.247314,411.227203 
M483.502228,400.085571 
	C483.112030,400.369080 482.394012,400.636475 482.379181,400.938446 
	C481.901520,410.651489 481.379639,420.366486 481.262482,430.085999 
	C481.251923,430.962677 484.672211,432.958588 485.215118,432.582245 
	C487.938110,430.694824 490.154877,428.098755 492.695587,425.922180 
	C497.985779,421.390228 497.984558,415.212982 496.444946,409.616882 
	C494.941925,404.153931 490.250000,400.829315 483.502228,400.085571 
z"/>
<path fill="#E83D40" opacity="1.000000" stroke="none" 
	d="
M618.078003,432.142059 
	C611.239746,437.156158 605.928894,435.943726 602.542053,428.587128 
	C598.196655,419.148560 599.139221,409.759399 603.807617,400.704407 
	C605.424805,397.567719 607.849243,393.814789 611.687134,395.169891 
	C614.855164,396.288513 618.352905,399.220551 619.700623,402.242676 
	C624.107849,412.124664 624.403625,422.242767 618.078003,432.142059 
z"/>
<path fill="#DAE7EE" opacity="1.000000" stroke="none" 
	d="
M384.456757,257.089478 
	C386.741272,264.154938 388.572174,271.152893 390.637665,278.080963 
	C393.934448,289.138947 391.525787,299.878448 388.123749,310.236206 
	C386.576050,314.948273 382.446381,318.809845 379.502533,323.067322 
	C378.600189,324.372375 377.746429,325.711029 376.785065,327.376373 
	C372.066650,330.658173 367.500427,333.711243 362.776245,336.496399 
	C359.793823,338.254608 356.659241,339.821228 353.447510,341.111816 
	C342.542816,345.493652 331.305847,348.348511 319.631012,350.294861 
	C286.709229,355.783417 253.619690,351.655670 220.645950,353.024384 
	C214.691727,353.271515 214.392288,352.328857 215.291946,346.290283 
	C218.000031,328.113403 220.470016,309.900665 222.971863,291.693573 
	C226.889420,263.183624 225.279465,234.492218 224.556580,205.941391 
	C224.094254,187.681656 220.054398,169.507034 217.510025,151.309402 
	C216.891037,146.882278 215.840668,142.515717 214.997269,138.119644 
	C214.347595,134.733292 215.517578,132.486221 219.164139,132.435425 
	C222.778610,132.385071 226.398224,132.871643 230.016251,132.881714 
	C248.343262,132.932739 266.671692,132.777100 284.997223,132.949387 
	C297.729950,133.069077 310.478729,133.267685 323.184753,134.026688 
	C343.308136,135.228806 358.654602,145.720306 369.753113,161.602051 
	C377.307373,172.412125 380.858734,185.263931 377.897491,198.827316 
	C377.275757,201.674942 374.995239,204.136810 373.650940,206.861237 
	C373.064270,208.050140 373.194427,209.627869 372.514252,210.729752 
	C368.324860,217.516342 363.882629,224.052338 355.954346,227.153152 
	C353.910797,227.952423 352.134705,229.435486 349.344116,231.153305 
	C355.351105,234.266632 360.619415,236.581284 365.446808,239.600830 
	C371.972473,243.682632 378.869354,247.568436 381.639282,255.596100 
	C381.870178,256.265289 383.258087,256.535217 384.456757,257.089478 
M308.633728,260.819122 
	C301.238861,259.956543 293.855988,258.929321 286.437622,258.390198 
	C285.171753,258.298187 282.607697,260.267303 282.582397,261.330414 
	C282.302765,273.068787 282.406586,284.816284 282.406586,296.980225 
	C297.735840,296.996307 310.529449,293.588440 320.850098,283.951477 
	C328.030701,277.246490 326.401550,269.144165 317.626160,264.585876 
	C314.983948,263.213409 312.145569,262.218597 308.633728,260.819122 
M291.659821,214.070145 
	C300.415619,212.492508 309.487488,211.871582 317.851715,209.108597 
	C329.811066,205.158035 332.895630,189.384430 323.898346,180.661240 
	C315.561432,172.578323 304.828491,172.314987 294.061798,172.587326 
	C290.593506,172.675079 289.281189,174.169724 289.001617,177.724854 
	C288.194702,187.985580 287.204254,198.246597 285.783936,208.437561 
	C285.162781,212.894623 286.098297,214.797028 291.659821,214.070145 
z"/>
<path fill="#F33536" opacity="1.000000" stroke="none" 
	d="
M483.908264,400.034485 
	C490.250000,400.829315 494.941925,404.153931 496.444946,409.616882 
	C497.984558,415.212982 497.985779,421.390228 492.695587,425.922180 
	C490.154877,428.098755 487.938110,430.694824 485.215118,432.582245 
	C484.672211,432.958588 481.251923,430.962677 481.262482,430.085999 
	C481.379639,420.366486 481.901520,410.651489 482.379181,400.938446 
	C482.394012,400.636475 483.112030,400.369080 483.908264,400.034485 
z"/>
<path fill="#EA3C3E" opacity="1.000000" stroke="none" 
	d="
M309.015381,260.934937 
	C312.145569,262.218597 314.983948,263.213409 317.626160,264.585876 
	C326.401550,269.144165 328.030701,277.246490 320.850098,283.951477 
	C310.529449,293.588440 297.735840,296.996307 282.406586,296.980225 
	C282.406586,284.816284 282.302765,273.068787 282.582397,261.330414 
	C282.607697,260.267303 285.171753,258.298187 286.437622,258.390198 
	C293.855988,258.929321 301.238861,259.956543 309.015381,260.934937 
z"/>
<path fill="#D04C55" opacity="1.000000" stroke="none" 
	d="
M291.193726,214.076111 
	C286.098297,214.797028 285.162781,212.894623 285.783936,208.437561 
	C287.204254,198.246597 288.194702,187.985580 289.001617,177.724854 
	C289.281189,174.169724 290.593506,172.675079 294.061798,172.587326 
	C304.828491,172.314987 315.561432,172.578323 323.898346,180.661240 
	C332.895630,189.384430 329.811066,205.158035 317.851715,209.108597 
	C309.487488,211.871582 300.415619,212.492508 291.193726,214.076111 
M288.906677,203.167938 
	C286.912415,211.327164 288.712952,213.128967 297.091248,211.538986 
	C299.033417,211.170410 301.050781,211.070206 303.033875,211.067413 
	C311.516724,211.055435 317.873199,206.346786 323.239716,200.765976 
	C325.385498,198.534470 326.201080,193.811142 325.670715,190.538315 
	C325.062561,186.785080 324.564758,181.476334 318.438538,181.516373 
	C313.245697,174.329880 305.335419,175.481461 298.032288,175.076508 
	C296.480530,174.990463 293.966858,175.964935 293.419189,177.152847 
	C291.858643,180.537979 290.686951,184.221817 290.098358,187.905716 
	C289.342346,192.637650 289.302795,197.484039 288.906677,203.167938 
z"/>
<path fill="#F33536" opacity="1.000000" stroke="none" 
	d="
M288.930634,202.724533 
	C289.302795,197.484039 289.342346,192.637650 290.098358,187.905716 
	C290.686951,184.221817 291.858643,180.537979 293.419189,177.152847 
	C293.966858,175.964935 296.480530,174.990463 298.032288,175.076508 
	C305.335419,175.481461 313.245697,174.329880 318.438538,181.516373 
	C324.564758,181.476334 325.062561,186.785080 325.670715,190.538315 
	C326.201080,193.811142 325.385498,198.534470 323.239716,200.765976 
	C317.873199,206.346786 311.516724,211.055435 303.033875,211.067413 
	C301.050781,211.070206 299.033417,211.170410 297.091248,211.538986 
	C288.712952,213.128967 286.912415,211.327164 288.930634,202.724533 
z"/>
</svg>